<svg width="35" height="35" viewBox="0 0 35 35" fill="none" xmlns="http://www.w3.org/2000/svg">
<g id="bracket.icon">
<path id="Vector" d="M13.8542 12.3959L16.0417 14.5834L11.6667 18.9584L16.0417 23.3334L13.8542 25.5209L7.29166 18.9584L13.8542 12.3959ZM21.1458 25.5209L18.9583 23.3334L23.3333 18.9584L18.9583 14.5834L21.1458 12.3959L27.7083 18.9584L21.1458 25.5209ZM30.625 2.91669H4.37499C3.60145 2.91669 2.85958 3.22398 2.3126 3.77096C1.76562 4.31794 1.45833 5.05981 1.45833 5.83335V29.1667C1.45833 29.9402 1.76562 30.6821 2.3126 31.2291C2.85958 31.7761 3.60145 32.0834 4.37499 32.0834H30.625C31.3985 32.0834 32.1404 31.7761 32.6874 31.2291C33.2344 30.6821 33.5417 29.9402 33.5417 29.1667V5.83335C33.5417 5.05981 33.2344 4.31794 32.6874 3.77096C32.1404 3.22398 31.3985 2.91669 30.625 2.91669ZM30.625 29.1667H4.37499V8.75002H30.625V29.1667Z" fill="black"/>
</g>
</svg>
