<svg width="35" height="35" viewBox="0 0 35 35" fill="none" xmlns="http://www.w3.org/2000/svg">
<g id="logos/linkedin" clip-path="url(#clip0_5_40)">
<path id="Vector" d="M26.7385 26.7444H22.8521V20.6529C22.8521 19.2004 22.8229 17.3308 20.825 17.3308C18.7994 17.3308 18.4902 18.9117 18.4902 20.5465V26.7444H14.6023V14.2188H18.3356V15.925H18.3867C18.9088 14.9421 20.1775 13.9023 22.0733 13.9023C26.0108 13.9023 26.74 16.4952 26.74 19.8683V26.7444H26.7385ZM10.2127 12.5052C9.91602 12.5056 9.62217 12.4474 9.34801 12.334C9.07385 12.2206 8.82477 12.0542 8.61504 11.8443C8.40532 11.6345 8.23908 11.3853 8.12585 11.1111C8.01262 10.8368 7.95463 10.5429 7.95521 10.2463C7.9555 9.79976 8.08818 9.36338 8.33648 8.9923C8.58477 8.62121 8.93753 8.33209 9.35015 8.16149C9.76276 7.99089 10.2167 7.94648 10.6546 8.03387C11.0924 8.12126 11.4945 8.33653 11.81 8.65245C12.1255 8.96837 12.3403 9.37075 12.4271 9.80872C12.5139 10.2467 12.4689 10.7006 12.2978 11.113C12.1267 11.5254 11.8371 11.8777 11.4657 12.1256C11.0943 12.3734 10.6577 12.5055 10.2112 12.5052H10.2127ZM12.161 26.7444H8.26292V14.2188H12.1625V26.7444H12.161ZM28.6854 4.375H6.31313C5.23979 4.375 4.375 5.22083 4.375 6.26646V28.7335C4.375 29.7792 5.24125 30.625 6.31167 30.625H28.6796C29.75 30.625 30.625 29.7792 30.625 28.7335V6.26646C30.625 5.22083 29.75 4.375 28.6796 4.375H28.684H28.6854Z" fill="black"/>
</g>
<defs>
<clipPath id="clip0_5_40">
<rect width="35" height="35" fill="white"/>
</clipPath>
</defs>
</svg>
