<svg width="35" height="35" viewBox="0 0 35 35" fill="none" xmlns="http://www.w3.org/2000/svg">
<g id="stack.icon">
<path id="Vector" d="M29.2877 22.1667L31.0406 23.2181C31.1488 23.2829 31.2383 23.3745 31.3004 23.4842C31.3626 23.5938 31.3952 23.7177 31.3952 23.8437C31.3952 23.9698 31.3626 24.0937 31.3004 24.2033C31.2383 24.313 31.1488 24.4046 31.0406 24.4694L18.251 32.1431C18.0242 32.2794 17.7646 32.3514 17.5 32.3514C17.2354 32.3514 16.9758 32.2794 16.749 32.1431L3.95937 24.4694C3.85123 24.4046 3.76171 24.313 3.69956 24.2033C3.63741 24.0937 3.60474 23.9698 3.60474 23.8437C3.60474 23.7177 3.63741 23.5938 3.69956 23.4842C3.76171 23.3745 3.85123 23.2829 3.95937 23.2181L5.71228 22.1667L17.5 29.2396L29.2877 22.1667ZM29.2877 15.3125L31.0406 16.364C31.1488 16.4287 31.2383 16.5204 31.3004 16.63C31.3626 16.7397 31.3952 16.8635 31.3952 16.9896C31.3952 17.1156 31.3626 17.2395 31.3004 17.3492C31.2383 17.4588 31.1488 17.5505 31.0406 17.6152L17.5 25.7381L3.95937 17.6152C3.85123 17.5505 3.76171 17.4588 3.69956 17.3492C3.63741 17.2395 3.60474 17.1156 3.60474 16.9896C3.60474 16.8635 3.63741 16.7397 3.69956 16.63C3.76171 16.5204 3.85123 16.4287 3.95937 16.364L5.71228 15.3125L17.5 22.3854L29.2877 15.3125ZM18.2496 1.90895L31.0406 9.58271C31.1488 9.64744 31.2383 9.73911 31.3004 9.84876C31.3626 9.95841 31.3952 10.0823 31.3952 10.2083C31.3952 10.3344 31.3626 10.4583 31.3004 10.5679C31.2383 10.6776 31.1488 10.7692 31.0406 10.834L17.5 18.9569L3.95937 10.8354C3.85123 10.7707 3.76171 10.679 3.69956 10.5694C3.63741 10.4597 3.60474 10.3358 3.60474 10.2098C3.60474 10.0837 3.63741 9.95986 3.69956 9.85022C3.76171 9.74057 3.85123 9.6489 3.95937 9.58416L16.749 1.91041C16.9758 1.77414 17.2354 1.70215 17.5 1.70215C17.7646 1.70215 18.0242 1.77414 18.251 1.91041L18.2496 1.90895ZM17.5 4.85916L8.5852 10.2083L17.5 15.556L26.4148 10.2083L17.5 4.85916Z" fill="black"/>
</g>
</svg>
